<svg class="animated" id="freepik_stories-partnership" xmlns="http://www.w3.org/2000/svg" viewBox="0 0 500 500" version="1.1" xmlns:xlink="http://www.w3.org/1999/xlink" xmlns:svgjs="http://svgjs.com/svgjs"><style>svg#freepik_stories-partnership:not(.animated) .animable {opacity: 0;}svg#freepik_stories-partnership.animated #freepik--background-simple--inject-26 {animation: 1s 1 forwards cubic-bezier(.36,-0.01,.5,1.38) fadeIn;animation-delay: 0s;}svg#freepik_stories-partnership.animated #freepik--Puzzle--inject-26 {animation: 1s 1 forwards cubic-bezier(.36,-0.01,.5,1.38) slideRight;animation-delay: 0s;}svg#freepik_stories-partnership.animated #freepik--Target--inject-26 {animation: 1s 1 forwards cubic-bezier(.36,-0.01,.5,1.38) slideDown;animation-delay: 0s;}svg#freepik_stories-partnership.animated #freepik--Chart--inject-26 {animation: 1s 1 forwards cubic-bezier(.36,-0.01,.5,1.38) slideLeft;animation-delay: 0s;}svg#freepik_stories-partnership.animated #freepik--Money--inject-26 {animation: 1s 1 forwards cubic-bezier(.36,-0.01,.5,1.38) slideDown;animation-delay: 0s;}svg#freepik_stories-partnership.animated #freepik--Calendar--inject-26 {animation: 1s 1 forwards cubic-bezier(.36,-0.01,.5,1.38) lightSpeedLeft;animation-delay: 0s;}svg#freepik_stories-partnership.animated #freepik--Plants--inject-26 {animation: 1s 1 forwards cubic-bezier(.36,-0.01,.5,1.38) slideLeft;animation-delay: 0s;}svg#freepik_stories-partnership.animated #freepik--Characters--inject-26 {animation: 1s 1 forwards cubic-bezier(.36,-0.01,.5,1.38) slideLeft;animation-delay: 0s;}svg#freepik_stories-partnership.animated #freepik--Table--inject-26 {animation: 1s 1 forwards cubic-bezier(.36,-0.01,.5,1.38) slideDown;animation-delay: 0s;}svg#freepik_stories-partnership.animated #freepik--lines-1--inject-26 {animation: 1s 1 forwards cubic-bezier(.36,-0.01,.5,1.38) slideDown;animation-delay: 0s;}            @keyframes fadeIn {                0% {                    opacity: 0;                }                100% {                    opacity: 1;                }            }                    @keyframes slideRight {                0% {                    opacity: 0;                    transform: translateX(30px);                }                100% {                    opacity: 1;                    transform: translateX(0);                }            }                    @keyframes slideDown {                0% {                    opacity: 0;                    transform: translateY(-30px);                }                100% {                    opacity: 1;                    transform: translateY(0);                }            }                    @keyframes slideLeft {                0% {                    opacity: 0;                    transform: translateX(-30px);                }                100% {                    opacity: 1;                    transform: translateX(0);                }            }                    @keyframes lightSpeedLeft {              from {                transform: translate3d(-50%, 0, 0) skewX(20deg);                opacity: 0;              }              60% {                transform: skewX(-10deg);                opacity: 1;              }              80% {                transform: skewX(2deg);              }              to {                opacity: 1;                transform: translate3d(0, 0, 0);              }            }        </style><g id="freepik--background-simple--inject-26" class="animable" style="transform-origin: 252.204px 232.656px;"><path d="M470.92,280.06c-14.72,39.43-44.8,82.11-87.13,94.74-64,19.1-71.6,70.66-186.16,65.88a231.35,231.35,0,0,1-49.54-7.27,190.34,190.34,0,0,1-23.29-7.75C57.87,398.56,23,338.9,20.06,276.47c-3.83-82.1,53.46-121.23,90.69-144.15s82.1-111.7,194.76-107.88a223.57,223.57,0,0,1,50.92,7.43c37.91,10.26,76.44,33,98.83,66.13q2.52,3.73,4.82,7.64C490.05,156.48,491,226.3,470.92,280.06Z" style="fill: rgb(44, 219, 19); transform-origin: 252.204px 232.656px;" id="el4l8grbwkpkt" class="animable"></path><g id="elczpwl6kn0g"><path d="M470.92,280.06c-14.72,39.43-44.8,82.11-87.13,94.74-64,19.1-71.6,70.66-186.16,65.88a231.35,231.35,0,0,1-49.54-7.27,190.34,190.34,0,0,1-23.29-7.75C57.87,398.56,23,338.9,20.06,276.47c-3.83-82.1,53.46-121.23,90.69-144.15s82.1-111.7,194.76-107.88a223.57,223.57,0,0,1,50.92,7.43c37.91,10.26,76.44,33,98.83,66.13q2.52,3.73,4.82,7.64C490.05,156.48,491,226.3,470.92,280.06Z" style="fill: rgb(255, 255, 255); opacity: 0.7; transform-origin: 252.204px 232.656px;" class="animable"></path></g></g><g id="freepik--Puzzle--inject-26" class="animable" style="transform-origin: 250.642px 231.185px;"><path d="M250.5,315.72c-11.63-26.4-9.91-69.64-4.52-73.24,5.93-3.95,15.32,16.32,24.72,10.39s15.82-18.79,7.91-39.06-18.29-6.92-25.71-2-13.35.5-11.86-17.3c1.09-13.13,6.21-37.26,8.83-49,1.18.51,2.36,1,3.52,1.57-23.23-10.88-48.94-14.34-59.81-10.88s-8.9,4.45-3.47,17.3c11.35,26.81-31.62,36-44,15.35-7.41-12.36,3.49-19.3.52-28.2s-57.84,1.48-64.76,5.44c0,0,13.34,40,11.37,54.38s-8.9,20.77-19.28,10.38-23.73-1-24.23,16.32,2.47,31.14,14.34,27.19,21.26-18.29,25.21,0-3,42-6.92,58.83c0,0,31.15,13.35,45.48,12.36s23.24-1.48,18.79-10.38-11.87-14.83-6.43-24.72,27.19-8.9,38.56-6.43,16.32,10.88,12.86,20.27-9.4,18.79,1.48,20.76c10.25,1.87,36.32-2.42,62-10.78C253.58,314.76,252,315.24,250.5,315.72Z" style="fill: none; stroke: rgb(38, 50, 56); stroke-miterlimit: 10; transform-origin: 165.926px 230.256px;" id="elc0ck0bopr74" class="animable"></path><path d="M259.82,312.69c-1.52.52-3.05,1-4.57,1.53C256.77,313.72,258.3,313.21,259.82,312.69Z" style="fill: none; stroke: rgb(38, 50, 56); stroke-miterlimit: 10; transform-origin: 257.535px 313.455px;" id="el1paoei9yvpv" class="animable"></path><path d="M440.27,206.39c-9.39,0-9.89,7.42-19.78,5.94s-10.87-24.23-.49-64.27c0,0-11.37,8.4-37.08,8.9s-36.09-2.48-29.66-11.87,11.37-16.81,5.93-24.22-31.64-6.43-40,0-2.47,13.84,3.46,22.24-1,13.35-10.88,13.85-35.1,1-58.34-9.89c-1.16-.55-2.34-1.06-3.52-1.57-2.62,11.77-7.74,35.9-8.83,49-1.49,17.8,4.44,22.25,11.86,17.3s17.8-18.29,25.71,2,1.48,33.12-7.91,39.06S251.91,238.53,246,242.48c-5.39,3.6-7.11,46.84,4.52,73.24,3.11-1,6.22-2,9.32-3,27.19-9.4,54.38-13.85,59.33-7.42s3,5.44-3.46,15.33-5.94,18.29,4.94,23.23,37.57,4,40-7.41-11.37-17.8-4.94-28.68S419,312.69,419,312.69s-12.85-43.51-7.91-57.85S420,244,427.91,249.4s18.29,4.95,22.25-10.87S449.66,206.39,440.27,206.39Z" style="fill: none; stroke: rgb(38, 50, 56); stroke-miterlimit: 10; transform-origin: 346.228px 231.185px;" id="elmqsyv48tjom" class="animable"></path></g><g id="freepik--Target--inject-26" class="animable" style="transform-origin: 405.222px 78.77px;"><g id="elwbo5fduo01q"><circle cx="400.12" cy="78.77" r="25.2" style="fill: rgb(44, 219, 19); stroke: rgb(38, 50, 56); stroke-miterlimit: 10; transform-origin: 400.12px 78.77px; transform: rotate(-25.27deg);" class="animable"></circle></g><g id="elx7wv14j6tmd"><circle cx="400.12" cy="78.77" r="20.72" style="fill: rgb(255, 255, 255); stroke: rgb(38, 50, 56); stroke-miterlimit: 10; transform-origin: 400.12px 78.77px; transform: rotate(-5.86deg);" class="animable"></circle></g><g id="elk6kjycvppwc"><circle cx="400.12" cy="78.77" r="15.09" style="fill: rgb(44, 219, 19); stroke: rgb(38, 50, 56); stroke-miterlimit: 10; transform-origin: 400.12px 78.77px; transform: rotate(-25.44deg);" class="animable"></circle></g><path d="M409.64,78.77a9.53,9.53,0,1,0-9.53,9.53A9.52,9.52,0,0,0,409.64,78.77Z" style="fill: rgb(255, 255, 255); stroke: rgb(38, 50, 56); stroke-miterlimit: 10; transform-origin: 400.11px 78.77px;" id="el2lk6ukuj0vw" class="animable"></path><path d="M404.53,78.77a4.42,4.42,0,1,0-4.42,4.41A4.42,4.42,0,0,0,404.53,78.77Z" style="fill: rgb(44, 219, 19); stroke: rgb(38, 50, 56); stroke-miterlimit: 10; transform-origin: 400.11px 78.76px;" id="elw5zfjwvz5q" class="animable"></path><polygon points="401.94 71.86 400.12 78.77 406.64 80.2 401.94 71.86" style="fill: rgb(38, 50, 56); stroke: rgb(38, 50, 56); stroke-miterlimit: 10; transform-origin: 403.38px 76.03px;" id="el741zmx3e7ai" class="animable"></polygon><line x1="404.72" y1="75.71" x2="433.39" y2="60.09" style="fill: rgb(255, 255, 255); stroke: rgb(38, 50, 56); stroke-miterlimit: 10; stroke-width: 2px; transform-origin: 419.055px 67.9px;" id="elye6j418omwl" class="animable"></line><polygon points="424.19 65.23 424.62 57.74 438.09 50.04 438.09 58.59 424.19 65.23" style="fill: rgb(38, 50, 56); stroke: rgb(38, 50, 56); stroke-miterlimit: 10; transform-origin: 431.14px 57.635px;" id="el290qlhyiigq" class="animable"></polygon><polygon points="443.87 62.66 437.97 58.31 424.13 65.58 430.8 69.44 443.87 62.66" style="fill: rgb(38, 50, 56); stroke: rgb(38, 50, 56); stroke-miterlimit: 10; transform-origin: 434px 63.875px;" id="elx1swzbshomn" class="animable"></polygon></g><g id="freepik--Chart--inject-26" class="animable" style="transform-origin: 292.545px 69.88px;"><rect x="257.99" y="80.3" width="10.02" height="23.86" style="fill: rgb(44, 219, 19); stroke: rgb(38, 50, 56); stroke-miterlimit: 10; transform-origin: 263px 92.23px;" id="elcvd68nqd7s" class="animable"></rect><rect x="272.76" y="73.07" width="10.02" height="31.09" style="fill: rgb(44, 219, 19); stroke: rgb(38, 50, 56); stroke-miterlimit: 10; transform-origin: 277.77px 88.615px;" id="elfkfjrtlskmr" class="animable"></rect><rect x="287.53" y="80.3" width="10.02" height="23.86" style="fill: rgb(44, 219, 19); stroke: rgb(38, 50, 56); stroke-miterlimit: 10; transform-origin: 292.54px 92.23px;" id="elqm9o8gtipr" class="animable"></rect><rect x="302.31" y="71.5" width="10.02" height="32.66" style="fill: rgb(44, 219, 19); stroke: rgb(38, 50, 56); stroke-miterlimit: 10; transform-origin: 307.32px 87.83px;" id="eletzu3o7plw" class="animable"></rect><rect x="317.08" y="59.55" width="10.02" height="44.61" style="fill: rgb(44, 219, 19); stroke: rgb(38, 50, 56); stroke-miterlimit: 10; transform-origin: 322.09px 81.855px;" id="el6clau6eeg6p" class="animable"></rect><polygon points="313.8 40.65 317.71 42.32 291.12 67.84 278.42 60.91 258.3 73.14 258.3 76.83 278.5 64.55 291.64 71.72 319.89 44.6 321.4 48.57 326.99 35.6 313.8 40.65" style="fill: rgb(38, 50, 56); stroke: rgb(38, 50, 56); stroke-linecap: round; stroke-linejoin: round; transform-origin: 292.645px 56.215px;" id="elelxmoz860i" class="animable"></polygon></g><g id="freepik--Money--inject-26" class="animable" style="transform-origin: 191.38px 78.62px;"><g id="elce3nw72ygfs"><circle cx="191.38" cy="78.62" r="25.2" style="fill: rgb(255, 255, 255); stroke: rgb(38, 50, 56); stroke-miterlimit: 10; transform-origin: 191.38px 78.62px; transform: rotate(-13.21deg);" class="animable"></circle></g><g id="eldnevdx3mq5m"><circle cx="191.38" cy="78.62" r="22.4" style="fill: rgb(44, 219, 19); stroke: rgb(38, 50, 56); stroke-miterlimit: 10; transform-origin: 191.38px 78.62px; transform: rotate(-12.86deg);" class="animable"></circle></g><g id="el03wbcbszpcjc"><circle cx="191.36" cy="78.77" r="20.21" style="fill: rgb(255, 255, 255); stroke: rgb(38, 50, 56); stroke-miterlimit: 10; transform-origin: 191.36px 78.77px; transform: rotate(-8.81deg);" class="animable"></circle></g><path d="M191.07,96.06V92.85a6.84,6.84,0,0,1-5.31-2.27q-1.77-2.14-1.9-6.39l4.87-.83a13.58,13.58,0,0,0,.36,2.89A3.53,3.53,0,0,0,190,88a2.09,2.09,0,0,0,1.52.57,1.53,1.53,0,0,0,1.46-.69,3.08,3.08,0,0,0,.4-1.59,5.14,5.14,0,0,0-.81-3,12.47,12.47,0,0,0-2.23-2.4l-2.93-2.51a19.58,19.58,0,0,1-1.79-1.9,7.75,7.75,0,0,1-1.26-2.21,8.39,8.39,0,0,1-.47-2.94,6.76,6.76,0,0,1,1.85-5,7.63,7.63,0,0,1,4.95-2V61.17h1.66v3.08a6.31,6.31,0,0,1,3.05.84A5.18,5.18,0,0,1,197.18,67a8.76,8.76,0,0,1,.9,2.45,17.25,17.25,0,0,1,.34,2.58l-4.93.72a14.63,14.63,0,0,0-.21-2.26,3.26,3.26,0,0,0-.62-1.54,1.59,1.59,0,0,0-1.38-.51,1.75,1.75,0,0,0-1.47.76,2.8,2.8,0,0,0-.5,1.62,4,4,0,0,0,.76,2.55,15.84,15.84,0,0,0,1.73,1.87l2.86,2.48a20.33,20.33,0,0,1,2.11,2.24,10.65,10.65,0,0,1,1.55,2.68,9,9,0,0,1,.59,3.36,7.34,7.34,0,0,1-.75,3.33A6.12,6.12,0,0,1,196,91.72a7.11,7.11,0,0,1-3.3,1.1v3.24Z" style="fill: rgb(38, 50, 56); transform-origin: 191.386px 78.615px;" id="elf1ivkj0vi1" class="animable"></path></g><g id="freepik--Calendar--inject-26" class="animable" style="transform-origin: 86.315px 77.515px;"><rect x="62.92" y="59.12" width="46.79" height="43.99" style="fill: rgb(255, 255, 255); stroke: rgb(38, 50, 56); stroke-miterlimit: 10; transform-origin: 86.315px 81.115px;" id="el7wwrix8idli" class="animable"></rect><rect x="62.92" y="59.12" width="46.79" height="11.31" style="fill: rgb(44, 219, 19); stroke: rgb(38, 50, 56); stroke-linecap: round; stroke-linejoin: round; transform-origin: 86.315px 64.775px;" id="el6mwnijrbxmc" class="animable"></rect><rect x="66.72" y="76.71" width="5.6" height="5.6" style="fill: rgb(44, 219, 19); stroke: rgb(38, 50, 56); stroke-linecap: round; stroke-linejoin: round; transform-origin: 69.52px 79.51px;" id="el07jb8ek8ueno" class="animable"></rect><rect x="75.12" y="76.71" width="5.6" height="5.6" style="fill: rgb(44, 219, 19); stroke: rgb(38, 50, 56); stroke-linecap: round; stroke-linejoin: round; transform-origin: 77.92px 79.51px;" id="el79x8vu8gwv9" class="animable"></rect><rect x="83.51" y="76.71" width="5.6" height="5.6" style="fill: rgb(44, 219, 19); stroke: rgb(38, 50, 56); stroke-linecap: round; stroke-linejoin: round; transform-origin: 86.31px 79.51px;" id="el7jnywo1c1fc" class="animable"></rect><rect x="91.91" y="76.71" width="5.6" height="5.6" style="fill: rgb(44, 219, 19); stroke: rgb(38, 50, 56); stroke-linecap: round; stroke-linejoin: round; transform-origin: 94.71px 79.51px;" id="elqkpxt7ug6ac" class="animable"></rect><rect x="100.31" y="76.71" width="5.6" height="5.6" style="fill: rgb(44, 219, 19); stroke: rgb(38, 50, 56); stroke-linecap: round; stroke-linejoin: round; transform-origin: 103.11px 79.51px;" id="elu8jo8dyosp" class="animable"></rect><rect x="66.72" y="85.51" width="5.6" height="5.6" style="fill: rgb(44, 219, 19); stroke: rgb(38, 50, 56); stroke-linecap: round; stroke-linejoin: round; transform-origin: 69.52px 88.31px;" id="elq6abqbv7ul" class="animable"></rect><rect x="75.12" y="85.51" width="5.6" height="5.6" style="fill: rgb(44, 219, 19); stroke: rgb(38, 50, 56); stroke-linecap: round; stroke-linejoin: round; transform-origin: 77.92px 88.31px;" id="elsacf2l5sevc" class="animable"></rect><rect x="83.51" y="85.51" width="5.6" height="5.6" style="fill: rgb(44, 219, 19); stroke: rgb(38, 50, 56); stroke-linecap: round; stroke-linejoin: round; transform-origin: 86.31px 88.31px;" id="el8khzszvo7lw" class="animable"></rect><rect x="91.91" y="85.51" width="5.6" height="5.6" style="fill: rgb(44, 219, 19); stroke: rgb(38, 50, 56); stroke-linecap: round; stroke-linejoin: round; transform-origin: 94.71px 88.31px;" id="ell1sbcq3eaz" class="animable"></rect><rect x="100.31" y="85.51" width="5.6" height="5.6" style="fill: rgb(44, 219, 19); stroke: rgb(38, 50, 56); stroke-linecap: round; stroke-linejoin: round; transform-origin: 103.11px 88.31px;" id="elnfajvlo9enr" class="animable"></rect><rect x="66.72" y="94.31" width="5.6" height="5.6" style="fill: rgb(44, 219, 19); stroke: rgb(38, 50, 56); stroke-linecap: round; stroke-linejoin: round; transform-origin: 69.52px 97.11px;" id="el07th9o8igto2" class="animable"></rect><rect x="75.12" y="94.31" width="5.6" height="5.6" style="fill: rgb(44, 219, 19); stroke: rgb(38, 50, 56); stroke-linecap: round; stroke-linejoin: round; transform-origin: 77.92px 97.11px;" id="el97bwamjn71b" class="animable"></rect><rect x="83.51" y="94.31" width="5.6" height="5.6" style="fill: rgb(44, 219, 19); stroke: rgb(38, 50, 56); stroke-linecap: round; stroke-linejoin: round; transform-origin: 86.31px 97.11px;" id="elejt03btuxi" class="animable"></rect><rect x="91.91" y="94.31" width="5.6" height="5.6" style="fill: rgb(44, 219, 19); stroke: rgb(38, 50, 56); stroke-linecap: round; stroke-linejoin: round; transform-origin: 94.71px 97.11px;" id="eln1b0bofa64s" class="animable"></rect><rect x="100.31" y="94.31" width="5.6" height="5.6" style="fill: rgb(44, 219, 19); stroke: rgb(38, 50, 56); stroke-linecap: round; stroke-linejoin: round; transform-origin: 103.11px 97.11px;" id="elox633xpl4qs" class="animable"></rect><rect x="69.32" y="51.92" width="4" height="10.8" style="fill: rgb(38, 50, 56); transform-origin: 71.32px 57.32px;" id="elrg3vibj64f" class="animable"></rect><rect x="79.32" y="51.92" width="4" height="10.8" style="fill: rgb(38, 50, 56); transform-origin: 81.32px 57.32px;" id="elsy4qv345fj" class="animable"></rect><rect x="89.31" y="51.92" width="4" height="10.8" style="fill: rgb(38, 50, 56); transform-origin: 91.31px 57.32px;" id="eluq7tyegt4bp" class="animable"></rect><rect x="99.31" y="51.92" width="4" height="10.8" style="fill: rgb(38, 50, 56); transform-origin: 101.31px 57.32px;" id="el4ahwfv6qvc6" class="animable"></rect></g><g id="freepik--Plants--inject-26" class="animable" style="transform-origin: 240.802px 410.385px;"><path d="M22.23,387.72c2.17.95,7.48.83,7.48.83s-1.14-3.47-1.24-3.68c-1.17-2.44-4.85-6.46-7.85-6.06a3.58,3.58,0,0,0-2.87,4.49C18.25,385.37,20.38,386.92,22.23,387.72Z" style="fill: rgb(44, 219, 19); transform-origin: 23.6648px 383.669px;" id="elx4tmf4lzx2" class="animable"></path><path d="M24.06,403.11c2.25.32,7-1.05,7.37-1.16a62.79,62.79,0,0,0,2.87,7.95c.65,1.51,1.36,3,2.08,4.51-.43-.64-.82-1.2-.89-1.27-1.76-2.05-6.38-5-9.16-3.77a3.57,3.57,0,0,0-1.59,5.08c1,1.87,3.49,2.8,5.49,3.09s6.09-.79,7.16-1.1c.28.57.56,1.15.85,1.72,1.37,2.73,2.75,5.45,4,8.16.45.95.86,1.91,1.27,2.87-.39-.57-.71-1-.77-1.1-1.77-2-6.39-4.95-9.17-3.77A3.59,3.59,0,0,0,32,429.41c1,1.87,3.5,2.79,5.49,3.08s5.7-.69,7-1c.39,1,.78,2,1.12,3,.21.67.47,1.31.64,2s.38,1.34.56,2c.31,1.29.64,2.62.91,3.89.2.88.37,1.73.54,2.57-.44-.95-1.33-2.8-1.42-2.95-1.44-2.29-5.56-5.86-8.49-5.12A3.59,3.59,0,0,0,36,441.6c.73,2,3,3.3,5,3.89,2.12.64,6.82.05,7.41,0,.28,1.41.54,2.78.77,4.07.5,2.87.88,5.43,1.17,7.6h2c-.35-2.25-.8-4.92-1.4-7.92-.28-1.43-.61-2.95-1-4.51a38.36,38.36,0,0,0,4.14-1.95c1.55,1.68,5.51,3.64,6,3.89-.54,1.33-1.08,2.62-1.61,3.82-1.1,2.53-2.14,4.77-3.06,6.67h2.15c.79-1.76,1.66-3.76,2.56-6,.56-1.35,1.12-2.8,1.69-4.29.57.12,5.22,1.06,7.39.57,2-.44,4.35-1.55,5.24-3.5a3.59,3.59,0,0,0-2-4.95c-2.87-1-7.24,2.3-8.85,4.47-.09.13-1,1.63-1.5,2.59.23-.61.46-1.2.68-1.83.46-1.25.88-2.51,1.34-3.86l.6-2c.21-.67.35-1.39.54-2.1.39-1.63.7-3.31,1-5,1.1.4,5,1.76,7,1.61s4.54-.88,5.7-2.67a3.57,3.57,0,0,0-1.2-5.19c-2.69-1.38-7.51,1.17-9.42,3.08-.12.12-1.34,1.64-2,2.49.16-1,.33-2,.46-3.08.37-3,.65-6.05,1-9.09.09-.93.19-1.86.29-2.79.39.15,5,1.86,7.26,1.71,2-.15,4.53-.88,5.7-2.67a3.58,3.58,0,0,0-1.2-5.19c-2.69-1.39-7.51,1.16-9.43,3.07-.14.14-1.89,2.34-2.31,2.92.21-2.05.45-4.08.76-6.08a65,65,0,0,1,1.74-8c.18.07,5,1.88,7.3,1.72,2-.14,4.54-.88,5.7-2.67a3.58,3.58,0,0,0-1.2-5.19c-2.69-1.39-7.51,1.17-9.42,3.07-.15.15-2,2.51-2.35,3,0-.15.08-.31.12-.46a45.74,45.74,0,0,1,3.17-7.56c.68-1.35,1.42-2.6,2.16-3.79.86.43,4.8,2.34,6.91,2.43s4.6-.38,6-2a3.57,3.57,0,0,0-.63-5.29c-2.52-1.68-7.59.34-9.7,2-.12.09-1.18,1.15-1.94,1.93.34-.53.68-1.09,1-1.6,1.26-1.9,2.54-3.57,3.68-5,.66-.83,1.27-1.56,1.85-2.25,1.06,0,5.34-.15,7.21-1s3.92-2.45,4.36-4.54a3.58,3.58,0,0,0-3-4.41c-3-.32-6.58,3.8-7.68,6.27-.09.21-1.19,3.72-1.14,3.72H83c-.57.65-1.18,1.35-1.82,2.13-1.18,1.44-2.49,3.09-3.8,5a61.57,61.57,0,0,0-4,6.29,46.45,46.45,0,0,0-3.37,7.58l0,.1c0-.89,0-3.37,0-3.56-.35-2.68-2.6-7.65-5.57-8.2a3.58,3.58,0,0,0-4.13,3.37c-.17,2.13,1.37,4.26,2.87,5.6,1.7,1.52,6.41,3,6.79,3.1a63.22,63.22,0,0,0-2,8.22c-.29,1.62-.53,3.26-.75,4.9,0-.76,0-1.45,0-1.54-.35-2.68-2.6-7.65-5.57-8.2a3.58,3.58,0,0,0-4.13,3.36c-.17,2.13,1.37,4.26,2.87,5.61s5.52,2.69,6.58,3l-.24,1.9c-.36,3-.71,6.06-1.14,9-.15,1-.34,2.06-.53,3.09,0-.68,0-1.26,0-1.34-.35-2.68-2.59-7.66-5.57-8.21a3.59,3.59,0,0,0-4.13,3.37c-.17,2.13,1.37,4.26,2.88,5.6s5.12,2.57,6.38,3c-.22,1-.44,2.08-.7,3.09-.19.67-.33,1.34-.56,2s-.43,1.34-.64,2c-.46,1.25-.92,2.54-1.39,3.75l-1,2.44c.16-1,.44-3.07.44-3.25a14,14,0,0,0-1.86-6.76,5.24,5.24,0,0,0,0-.79,3.59,3.59,0,0,0-4.38-3c-2.92.78-4.78,5.91-4.92,8.61,0,.16.1,1.9.18,3-.14-.64-.28-1.25-.44-1.91-.31-1.29-.65-2.57-1-3.95-.2-.66-.41-1.33-.61-2s-.47-1.36-.71-2.05c-.57-1.58-1.24-3.15-1.94-4.72,1.13-.27,5.14-1.29,6.74-2.53s3.3-3.24,3.29-5.37a3.59,3.59,0,0,0-3.87-3.67c-3,.33-5.62,5.12-6.16,7.77,0,.16-.21,2.1-.29,3.17-.43-.94-.86-1.88-1.32-2.82-1.35-2.7-2.79-5.4-4.22-8.1l-1.3-2.48c.41-.1,5.19-1.21,7-2.59,1.61-1.23,3.3-3.24,3.29-5.37a3.59,3.59,0,0,0-3.87-3.67c-3,.33-5.62,5.12-6.16,7.77,0,.2-.3,3-.32,3.71-1-1.83-1.88-3.65-2.72-5.49a61.74,61.74,0,0,1-3-7.63c.19,0,5.19-1.18,7-2.59,1.6-1.23,3.3-3.24,3.28-5.37a3.58,3.58,0,0,0-3.86-3.67c-3,.33-5.62,5.12-6.17,7.76,0,.21-.31,3.22-.32,3.77l-.16-.46a47,47,0,0,1-1.53-8.05c-.17-1.5-.24-2.95-.29-4.35,1-.12,5.31-.7,7.11-1.79s3.63-2.86,3.85-5a3.58,3.58,0,0,0-3.44-4.07c-3,0-6.14,4.47-7,7,0,.14-.35,1.61-.55,2.69,0-.64,0-1.29,0-1.9,0-2.29.15-4.39.29-6.24.09-1,.19-2,.3-2.89.87-.6,4.37-3.07,5.45-4.84s1.91-4.21,1.12-6.19a3.57,3.57,0,0,0-4.92-2c-2.69,1.39-3.4,6.8-3,9.46,0,.23,1.06,3.77,1.1,3.74l.06,0c-.12.85-.24,1.77-.34,2.77-.19,1.86-.38,3.95-.43,6.25a65,65,0,0,0,.17,7.42,47.25,47.25,0,0,0,1.38,8.18l0,.1c-.48-.75-1.88-2.79-2-2.94-1.77-2-6.39-4.95-9.17-3.77A3.58,3.58,0,0,0,18.57,400C19.6,401.89,22.06,402.81,24.06,403.11Z" style="fill: rgb(44, 219, 19); transform-origin: 56.5394px 410.35px;" id="elh18babgm8kr" class="animable"></path><path d="M75.94,388.89s1-3.53,1-3.76c.38-2.67-.48-8.06-3.2-9.38a3.57,3.57,0,0,0-4.87,2.16c-.73,2,.19,4.47,1.29,6.16C71.44,386.06,75.93,388.89,75.94,388.89Z" style="fill: rgb(44, 219, 19); transform-origin: 72.8171px 382.161px;" id="elkd2n5mde8k" class="animable"></path><path d="M391.34,387.72c2.17.95,7.48.83,7.48.83s-1.14-3.47-1.24-3.68c-1.17-2.44-4.85-6.46-7.85-6.06a3.58,3.58,0,0,0-2.87,4.49C387.36,385.37,389.49,386.92,391.34,387.72Z" style="fill: rgb(44, 219, 19); transform-origin: 392.775px 383.669px;" id="elxhl7g71azs" class="animable"></path><path d="M393.17,403.11c2.25.32,7-1.05,7.37-1.16a64.38,64.38,0,0,0,2.87,7.95c.65,1.51,1.36,3,2.08,4.51-.43-.64-.82-1.2-.89-1.27-1.76-2.05-6.38-5-9.16-3.77a3.57,3.57,0,0,0-1.59,5.08c1,1.87,3.49,2.8,5.49,3.09s6.09-.79,7.16-1.1c.28.57.56,1.15.85,1.72,1.37,2.73,2.75,5.45,4,8.16.45.95.86,1.91,1.27,2.87-.39-.57-.71-1-.77-1.1-1.77-2-6.38-4.95-9.17-3.77a3.59,3.59,0,0,0-1.59,5.09c1,1.87,3.5,2.79,5.49,3.08s5.7-.69,7-1c.39,1,.79,2,1.12,3,.21.67.47,1.31.64,2s.38,1.34.56,2c.31,1.29.64,2.62.91,3.89.2.88.37,1.73.54,2.57-.44-.95-1.33-2.8-1.42-2.95-1.44-2.29-5.56-5.86-8.49-5.12a3.59,3.59,0,0,0-2.34,4.79c.73,2,3,3.3,5,3.89,2.12.64,6.82.05,7.41,0,.28,1.41.54,2.78.77,4.07.5,2.87.88,5.43,1.17,7.6h2c-.35-2.25-.8-4.92-1.4-7.92-.28-1.43-.61-2.95-1-4.51a38.36,38.36,0,0,0,4.14-1.95c1.55,1.68,5.51,3.64,6,3.89-.54,1.33-1.08,2.62-1.61,3.82-1.1,2.53-2.14,4.77-3.06,6.67h2.15c.79-1.76,1.66-3.76,2.56-6,.56-1.35,1.12-2.8,1.69-4.29.57.12,5.22,1.06,7.39.57,2-.44,4.35-1.55,5.24-3.5a3.59,3.59,0,0,0-2-4.95c-2.87-1-7.24,2.3-8.85,4.47-.09.13-1,1.63-1.5,2.59.23-.61.46-1.2.69-1.83.45-1.25.87-2.51,1.33-3.86l.6-2c.21-.67.35-1.39.54-2.1.39-1.63.7-3.31,1-5,1.1.4,5,1.76,7,1.61s4.54-.88,5.7-2.67a3.57,3.57,0,0,0-1.2-5.19c-2.69-1.38-7.51,1.17-9.42,3.08-.12.12-1.34,1.64-2,2.49.16-1,.33-2,.46-3.08.37-3,.65-6.05.95-9.09.09-.93.19-1.86.29-2.79.39.15,5,1.86,7.26,1.71,2-.15,4.53-.88,5.7-2.67a3.58,3.58,0,0,0-1.2-5.19c-2.69-1.39-7.51,1.16-9.43,3.07-.14.14-1.89,2.34-2.31,2.92.21-2.05.45-4.08.76-6.08a65,65,0,0,1,1.74-8c.18.07,5,1.88,7.3,1.72,2-.14,4.54-.88,5.7-2.67a3.58,3.58,0,0,0-1.2-5.19c-2.69-1.39-7.51,1.17-9.42,3.07-.15.15-2,2.51-2.35,3,0-.15.08-.31.12-.46a45.74,45.74,0,0,1,3.17-7.56c.68-1.35,1.42-2.6,2.16-3.79.86.43,4.8,2.34,6.91,2.43s4.6-.38,6-2a3.57,3.57,0,0,0-.63-5.29c-2.52-1.68-7.59.34-9.7,2-.11.09-1.18,1.15-1.94,1.93.34-.53.68-1.09,1-1.6,1.27-1.9,2.54-3.57,3.68-5,.66-.83,1.27-1.56,1.85-2.25,1.06,0,5.34-.15,7.21-1s3.92-2.45,4.36-4.54a3.58,3.58,0,0,0-3-4.41c-3-.32-6.59,3.8-7.69,6.27-.09.21-1.19,3.72-1.14,3.72h.07c-.57.65-1.18,1.35-1.82,2.13-1.18,1.44-2.49,3.09-3.8,5a61.57,61.57,0,0,0-3.95,6.29,46.45,46.45,0,0,0-3.37,7.58.38.38,0,0,1,0,.1c0-.89,0-3.37,0-3.56-.35-2.68-2.6-7.65-5.57-8.2a3.58,3.58,0,0,0-4.13,3.37c-.17,2.13,1.37,4.26,2.87,5.6,1.7,1.52,6.41,3,6.79,3.1a63.22,63.22,0,0,0-2,8.22c-.29,1.62-.53,3.26-.75,4.9,0-.76,0-1.45,0-1.54-.35-2.68-2.6-7.65-5.57-8.2a3.58,3.58,0,0,0-4.13,3.36c-.17,2.13,1.37,4.26,2.87,5.61s5.52,2.69,6.58,3c-.07.63-.16,1.26-.24,1.9-.36,3-.71,6.06-1.14,9-.15,1-.34,2.06-.53,3.09,0-.68,0-1.26,0-1.34-.35-2.68-2.59-7.66-5.57-8.21a3.59,3.59,0,0,0-4.13,3.37c-.17,2.13,1.37,4.26,2.88,5.6s5.13,2.57,6.38,3c-.22,1-.44,2.08-.7,3.09-.19.67-.33,1.34-.56,2s-.43,1.34-.64,2c-.46,1.25-.92,2.54-1.39,3.75l-1,2.44c.16-1,.44-3.07.44-3.25a13.89,13.89,0,0,0-1.86-6.76,5.24,5.24,0,0,0-.05-.79,3.59,3.59,0,0,0-4.38-3c-2.92.78-4.78,5.91-4.92,8.61,0,.16.1,1.9.18,3-.14-.64-.28-1.25-.44-1.91-.31-1.29-.65-2.57-1-3.95-.2-.66-.41-1.33-.61-2s-.47-1.36-.71-2.05c-.57-1.58-1.24-3.15-1.94-4.72,1.13-.27,5.14-1.29,6.74-2.53s3.3-3.24,3.29-5.37a3.59,3.59,0,0,0-3.87-3.67c-3,.33-5.62,5.12-6.16,7.77,0,.16-.21,2.1-.29,3.17-.43-.94-.86-1.88-1.32-2.82-1.35-2.7-2.79-5.4-4.22-8.1l-1.3-2.48c.41-.1,5.19-1.21,7-2.59,1.61-1.23,3.3-3.24,3.29-5.37a3.59,3.59,0,0,0-3.87-3.67c-3,.33-5.62,5.12-6.16,7.77,0,.2-.3,3-.32,3.71-.95-1.83-1.88-3.65-2.72-5.49a61.74,61.74,0,0,1-2.95-7.63c.19,0,5.19-1.18,7-2.59,1.6-1.23,3.3-3.24,3.28-5.37a3.58,3.58,0,0,0-3.86-3.67c-3,.33-5.62,5.12-6.17,7.76,0,.21-.31,3.22-.32,3.77l-.16-.46a47,47,0,0,1-1.53-8.05c-.16-1.5-.24-2.95-.29-4.35,1-.12,5.31-.7,7.11-1.79s3.63-2.86,3.85-5a3.58,3.58,0,0,0-3.44-4.07c-3,0-6.14,4.47-7,7,0,.14-.35,1.61-.55,2.69,0-.64,0-1.29,0-1.9,0-2.29.15-4.39.29-6.24.09-1,.19-2,.3-2.89.87-.6,4.37-3.07,5.45-4.84s1.91-4.21,1.12-6.19a3.57,3.57,0,0,0-4.92-2c-2.69,1.39-3.4,6.8-2.95,9.46,0,.23,1,3.77,1.1,3.74l.05,0c-.12.85-.24,1.77-.34,2.77-.19,1.86-.38,3.95-.43,6.25a65,65,0,0,0,.17,7.42,47.25,47.25,0,0,0,1.38,8.18l0,.1c-.48-.75-1.88-2.79-2-2.94-1.77-2-6.39-4.95-9.17-3.77a3.58,3.58,0,0,0-1.59,5.09C388.71,401.89,391.17,402.81,393.17,403.11Z" style="fill: rgb(44, 219, 19); transform-origin: 425.605px 410.42px;" id="elhz8bodni8l4" class="animable"></path><path d="M445.05,388.89s1-3.53,1-3.76c.38-2.67-.48-8.06-3.2-9.38a3.57,3.57,0,0,0-4.87,2.16c-.73,2,.19,4.47,1.29,6.16C440.55,386.06,445,388.89,445.05,388.89Z" style="fill: rgb(44, 219, 19); transform-origin: 441.927px 382.161px;" id="el799b7s0vax6" class="animable"></path></g><g id="freepik--Characters--inject-26" class="animable" style="transform-origin: 249.158px 302.568px;"><path d="M349.33,179.57s.31-11.29,6.82-14.49,6.88,7.37,6.88,7.37,14.89-9.46,18.12-2.29-1.28,10.64-1.28,10.64,13.22-.46,14.14,6.79-5.91,10.8-5.91,10.8,8.17,6.67,5.3,9.75-9.15,3.3-9.15,3.3,3.56,7.15-2.65,9.69-13.31-2.19-13.31-2.19,1.1,3.28-3.56,2.45-9.37-3-12.26-9.84S345.85,185.34,349.33,179.57Z" style="fill: rgb(38, 50, 56); stroke: rgb(38, 50, 56); stroke-linecap: round; stroke-linejoin: round; transform-origin: 371.01px 193.178px;" id="el7sfttmf42qn" class="animable"></path><path d="M280.59,397.62s-3.71,14.16-3.65,15.73-1.23,5.13-.14,6.14a52.33,52.33,0,0,0,6.47,4.51,4.89,4.89,0,0,0,2.6-.79,2.44,2.44,0,0,0,.81-1.78c0-.53-1.49-2.75-1.69-3.27s2.73-7.29,3.84-10.66a60,60,0,0,0,1.78-9.18Z" style="fill: rgb(189, 189, 189); stroke: rgb(38, 50, 56); stroke-miterlimit: 10; transform-origin: 283.485px 410.81px;" id="el44tg5gdnwq5" class="animable"></path><path d="M284.62,407.48s-2.11,5-2.25,5.86-3,3.26-2.62,5.18,4.6,1.41,6.68-4.27" style="fill: rgb(189, 189, 189); stroke: rgb(38, 50, 56); stroke-miterlimit: 10; transform-origin: 283.073px 413.504px;" id="el4dorjdsr1jz" class="animable"></path><path d="M294.07,320.7s-1.77,28.88-2.44,31.43-8.71,25.84-10.48,33a97.16,97.16,0,0,0-2.31,13.48l10.79,2.27,6.06-26.62S303.61,350,302,338.63A34,34,0,0,0,294.07,320.7Z" style="fill: rgb(44, 219, 19); stroke: rgb(38, 50, 56); stroke-miterlimit: 10; transform-origin: 290.528px 360.79px;" id="elero7n7inrtw" class="animable"></path><path d="M350.28,457.13c.13-6.28.39-14.75,1-19.6,1-8.38,4.58-13.56,8.26-24s4-24.16,4-24.16l-65.9,2.3S290,420,285.37,440.84a84.59,84.59,0,0,0-2.19,16.29" style="fill: rgb(44, 219, 19); stroke: rgb(38, 50, 56); stroke-miterlimit: 10; transform-origin: 323.36px 423.25px;" id="elgje4ays7zj9" class="animable"></path><polygon points="306.27 402.29 361.1 403.83 362.26 399.59 306.27 402.29" style="fill: rgb(38, 50, 56); stroke: rgb(38, 50, 56); stroke-linecap: round; stroke-linejoin: round; transform-origin: 334.265px 401.71px;" id="elvlltgunfv2" class="animable"></polygon><path d="M303.5,456.13s-1.08-34.29-1.11-52.9" style="fill: rgb(255, 255, 255); stroke: rgb(38, 50, 56); stroke-miterlimit: 10; transform-origin: 302.945px 429.68px;" id="elzkb85fh2hs" class="animable"></path><path d="M345.53,248.16l8,5.38S363,262,365.33,269s.64,48.57-1.71,62,3.52,30.16,5.61,39.6,3,27,3,27,1.48,2.06-24.2,2.95-43.59,2.23-45.69,2.65a25.69,25.69,0,0,1-3.85.49l-1-9.12L295,402.08l-5.33-1.22s3.31-16.32,4.14-22.68,6.07-28,6.14-36.14-6.73-21.24-8.06-29.3,1.35-21.88,8-32.32S311,265.94,324,255.28,345.53,248.16,345.53,248.16Z" style="fill: rgb(44, 219, 19); stroke: rgb(38, 50, 56); stroke-miterlimit: 10; transform-origin: 330.958px 325.643px;" id="elii7dxowm7u" class="animable"></path><polyline points="324.69 370.01 351.52 373.05 350.01 366.03 333.27 364.59" style="fill: none; stroke: rgb(38, 50, 56); stroke-miterlimit: 10; transform-origin: 338.105px 368.82px;" id="elesvvjubo2f" class="animable"></polyline><polyline points="315.31 364.2 313.95 368.8 320.68 369.56" style="fill: none; stroke: rgb(38, 50, 56); stroke-miterlimit: 10; transform-origin: 317.315px 366.88px;" id="el0i5jinus29ip" class="animable"></polyline><path d="M325.38,318.23a29.81,29.81,0,0,1-3.46-3.81" style="fill: none; stroke: rgb(38, 50, 56); stroke-miterlimit: 10; transform-origin: 323.65px 316.325px;" id="el9nvbxew6tek" class="animable"></path><path d="M334.71,326.11s-2.83-2.14-5.93-4.8" style="fill: none; stroke: rgb(38, 50, 56); stroke-miterlimit: 10; transform-origin: 331.745px 323.71px;" id="el5hvb3uj7c8e" class="animable"></path><path d="M345.53,248.16S337,244.61,324,255.28,306.55,270,299.87,280.42a56.45,56.45,0,0,0-7.8,21.11c.16.78.33,1.57.52,2.38,3.72,15.72,7.86,23.32,7.86,23.32s7.2-35.82,19.73-50.34,33.34-23.35,33.34-23.35Z" style="fill: rgb(44, 219, 19); stroke: rgb(38, 50, 56); stroke-miterlimit: 10; transform-origin: 322.795px 287.412px;" id="elxarodwuod8p" class="animable"></path><path d="M314.26,178.29s-9.39,8.77-10.09,15.68-1.43,12.87-2.6,15.1-7.07,3.69-5.07,7.06,3.87,3.3,3.87,3.3,3,14.91,5.28,17,10.35.89,10.35.89l2.5,18.08s-16.79,14.89-20.06,35.64.47,32.59.47,32.59,2.19-32.69,9.75-44.93,25.12-23.83,27.71-25.92,9.16-4.64,9.16-4.64-3.12-7-3.54-10.16-.28-7.81.31-9.08,11.08-5.08,15-17.1-1.85-26.21-8-32.25S322.12,170.51,314.26,178.29Z" style="fill: rgb(189, 189, 189); stroke: rgb(38, 50, 56); stroke-miterlimit: 10; transform-origin: 327.335px 248.624px;" id="elarell5az18g" class="animable"></path><path d="M357.34,211.82c4-12-1.85-26.21-8-32.25s-27.21-9.06-35.07-1.28c0,0-.5.47-1.28,1.28a21.69,21.69,0,0,1,9.13-.3c6.29,1,6.15,6,4.44,10.79s-.42,5.64,2.79,8-.08,6.89,2.18,8.69,4.1-8,9-.94,1.61,10.26-1.45,12.24a22.93,22.93,0,0,1-5.53,2.7s4.63,5.43,9.2,7.67C344.94,226.79,353.78,222.62,357.34,211.82Z" style="fill: rgb(38, 50, 56); stroke: rgb(38, 50, 56); stroke-linecap: round; stroke-linejoin: round; transform-origin: 335.822px 201.023px;" id="el7seczgreyrb" class="animable"></path><path d="M305.46,222.07s6.55-.54,9.58-3.46" style="fill: none; stroke: rgb(38, 50, 56); stroke-miterlimit: 10; transform-origin: 310.25px 220.34px;" id="elkjt36ilhr3s" class="animable"></path><path d="M309.62,206.6c.05,1.55-.54,2.83-1.31,2.86s-1.45-1.21-1.51-2.76.54-2.83,1.31-2.86S309.56,205.05,309.62,206.6Z" style="fill: rgb(38, 50, 56); transform-origin: 308.209px 206.65px;" id="elp7hb3vhott" class="animable"></path><path d="M306.8,200.27s2.11-2.84,5.13.51" style="fill: none; stroke: rgb(38, 50, 56); stroke-miterlimit: 10; transform-origin: 309.365px 199.963px;" id="eljeqmi1t6bk" class="animable"></path><polygon points="316 237.34 323.81 234.4 318.37 244.17 316 237.34" style="fill: rgb(38, 50, 56); stroke: rgb(38, 50, 56); stroke-miterlimit: 10; transform-origin: 319.905px 239.285px;" id="el0h0tq7vjgmwh" class="animable"></polygon><polygon points="293.51 380.87 283.27 424 292.46 426.14 297.52 394.6 293.51 380.87" style="fill: rgb(255, 255, 255); stroke: rgb(38, 50, 56); stroke-miterlimit: 10; transform-origin: 290.395px 403.505px;" id="el9p5iq7jfj2t" class="animable"></polygon><path d="M302.56,277.61a52.88,52.88,0,0,0-4.12,13.45c-3.27,20.74.47,32.59.47,32.59s2.17-32.25,9.6-44.67A26.86,26.86,0,0,1,302.56,277.61Z" style="fill: rgb(255, 255, 255); stroke: rgb(38, 50, 56); stroke-miterlimit: 10; transform-origin: 302.805px 300.63px;" id="eluxvfi1yxs7q" class="animable"></path><path d="M334.2,291.07l-.7,36.6-64.05,10.56,1.4,17.25s35.55.7,52.09-.71,31-2.46,33.08-4.22,8.11-35.78,10.57-59.71-2.46-32-12.31-30.62" style="fill: rgb(44, 219, 19); stroke: rgb(38, 50, 56); stroke-miterlimit: 10; transform-origin: 318.333px 307.863px;" id="eliwpg8ddqvpn" class="animable"></path><path d="M231.13,336.68,226,352.24l5,2.72s6.35,4.92,9.83,7.58,6.15,2.66,8,1.84,10.24-12.7,11.26-14.95-3.89-9-8.8-11.88-9-2.86-11.88-2A53.18,53.18,0,0,1,231.13,336.68Z" style="fill: rgb(255, 255, 255); stroke: rgb(38, 50, 56); stroke-miterlimit: 10; transform-origin: 243.113px 349.952px;" id="el7uxrgp7mgio" class="animable"></path><path d="M269.45,338.23l-8.1-.7a52.5,52.5,0,0,0-7.74-1.41c-2.11,0-4.93,2.11-6.34,3.17s-16.89,17.95-16.89,17.95,1.41,2.81,3.52,2.11,6-2.47,6-2.47-4.22,4.23-2.11,6.34,5.63,2.11,5.63,2.11l2.47-1.41a9.73,9.73,0,0,0,3.51,1.76c1.76.35,4.58-.35,7-1.76s8.71-8.75,8.71-8.75l5.4-2.09Z" style="fill: rgb(189, 189, 189); stroke: rgb(38, 50, 56); stroke-miterlimit: 10; transform-origin: 250.445px 350.945px;" id="elmh4xkosxus" class="animable"></path><path d="M233.92,337.35s10.24-5.94,14.74-4.3,10.45,11.67,8.81,13.11-4.3.81-5.73-.62a23.85,23.85,0,0,0-3.89-2.87,19.28,19.28,0,0,1-8.81,2.46" style="fill: rgb(255, 255, 255); stroke: rgb(38, 50, 56); stroke-miterlimit: 10; transform-origin: 245.834px 339.87px;" id="el3j0ee6s898i" class="animable"></path><path d="M264.46,360.6l-3.25-1.74a2.25,2.25,0,0,1-.93-3.05h0a2.25,2.25,0,0,1,3.05-.92l3.25,1.73a2.26,2.26,0,0,1,.93,3.05h0A2.26,2.26,0,0,1,264.46,360.6Z" style="fill: rgb(255, 255, 255); stroke: rgb(38, 50, 56); stroke-miterlimit: 10; transform-origin: 263.893px 357.742px;" id="elpjkj02nt5xd" class="animable"></path><path d="M261.59,364.08l-3.25-1.74a2.26,2.26,0,0,1-.93-3h0a2.26,2.26,0,0,1,3-.92l3.25,1.73a2.25,2.25,0,0,1,.93,3h0A2.25,2.25,0,0,1,261.59,364.08Z" style="fill: rgb(255, 255, 255); stroke: rgb(38, 50, 56); stroke-miterlimit: 10; transform-origin: 261.002px 361.251px;" id="el82jrtk75p0n" class="animable"></path><path d="M258.31,367.15l-3.25-1.74a2.24,2.24,0,0,1-.92-3.05h0a2.25,2.25,0,0,1,3.05-.92l3.25,1.74a2.25,2.25,0,0,1,.92,3.05h0A2.25,2.25,0,0,1,258.31,367.15Z" style="fill: rgb(255, 255, 255); stroke: rgb(38, 50, 56); stroke-miterlimit: 10; transform-origin: 257.748px 364.295px;" id="el71813bq5o4y" class="animable"></path><path d="M251.41,367.3l-.85-.45a2.25,2.25,0,0,1-.93-3.05h0a2.26,2.26,0,0,1,3.05-.93l.85.46a2.25,2.25,0,0,1,.93,3.05h0A2.25,2.25,0,0,1,251.41,367.3Z" style="fill: rgb(255, 255, 255); stroke: rgb(38, 50, 56); stroke-miterlimit: 10; transform-origin: 252.045px 365.088px;" id="elyujrlv7xx1s" class="animable"></path><polygon points="231.13 336.68 188.15 318.51 189.74 346.98 225.23 355.11 231.13 336.68" style="fill: rgb(38, 50, 56); stroke: rgb(38, 50, 56); stroke-linecap: round; stroke-linejoin: round; transform-origin: 209.64px 336.81px;" id="elr9pjzvd2xpm" class="animable"></polygon><polygon points="225.23 355.11 231.13 336.68 225.12 334.02 225 334.63 219.5 353.72 225.23 355.11" style="fill: rgb(255, 255, 255); stroke: rgb(38, 50, 56); stroke-miterlimit: 10; transform-origin: 225.315px 344.565px;" id="el8v81mi8fbmk" class="animable"></polygon><path d="M164,222.8l11,5.11s4.62,13.09,3.08,13.47-13.09-8.85-13.09-8.85Z" style="fill: rgb(255, 255, 255); stroke: rgb(38, 50, 56); stroke-linecap: round; stroke-linejoin: round; transform-origin: 171.197px 232.096px;" id="el7itbi3bg1dn" class="animable"></path><path d="M170.39,220.18l.77-4.41s10.2.7,14.28.67,7.64-.55,7.61-4.88-2.41-19.1-2.41-19.1,4.58-1.05,6.35-3.1-.79-4.58-3.1-7.63-4.38-6.34-4.65-9.91-6.47-15.25-6.47-15.25,1-1.79-2.33-5.59-20.41-4.46-31.34,1-13.42,13.34-13.37,22,5,20.87,5,20.87-3.23,13.27-3.48,14-3.15,6.42-3.15,6.42,13.67,9.53,18.66,13.81,16.26,11.6,16.33,7.64.52-12.9.52-12.9Z" style="fill: rgb(255, 255, 255); stroke: rgb(38, 50, 56); stroke-linecap: round; stroke-linejoin: round; transform-origin: 165.84px 192.932px;" id="elgk8mmmudbmf" class="animable"></path><path d="M185.46,178.82c.06,1.48-.28,2.69-.77,2.71s-.95-1.15-1-2.63.27-2.69.77-2.71S185.39,177.34,185.46,178.82Z" style="fill: rgb(38, 50, 56); transform-origin: 184.576px 178.86px;" id="elwb5bqheqpz" class="animable"></path><path d="M178.29,173.93s2.27-3.84,8.15-1.58" style="fill: none; stroke: rgb(38, 50, 56); stroke-linecap: round; stroke-linejoin: round; stroke-width: 2px; transform-origin: 182.365px 172.784px;" id="elfkq689n3f8h" class="animable"></path><path d="M193.05,211.56c0-4.34-2.41-19.1-2.41-19.1s-2.81-1.51-8.16-.21-6.81,10-7.83,11-7.67-5-10.25-9.11S160,183,159.72,178.89s9.39-6.18,10.9-10S165,161,167.49,158.45s7.64-1.57,10.19-1.08a9,9,0,0,0,5.09-.8s1-1.79-2.33-5.59-20.41-4.46-31.34,1-13.42,13.34-13.37,22c.05,7,3.29,16.36,4.51,19.66a8.28,8.28,0,0,0,3.27.68c1-.26,1.76-3.32,2.25-6.39s7.86-6.67,7.86-6.67,1.33,9.17,1.34,10.95-1,10.71,3.92,15a91.76,91.76,0,0,0,12.28,8.59s10.2.7,14.28.67S193.08,215.89,193.05,211.56Z" style="fill: rgb(38, 50, 56); stroke: rgb(38, 50, 56); stroke-linecap: round; stroke-linejoin: round; transform-origin: 164.39px 182.239px;" id="elu1qm2zird5" class="animable"></path><path d="M155.19,187.58s-2.12-12.22-5.68-11.69-5.58,5.13-3.76,11,5.39,5.32,7.42,4.8" style="fill: rgb(255, 255, 255); stroke: rgb(38, 50, 56); stroke-linecap: round; stroke-linejoin: round; transform-origin: 150.129px 183.933px;" id="elwbsqmpok69q" class="animable"></path><path d="M180.22,196.85s2.05,2.54,7.4,2.51" style="fill: none; stroke: rgb(255, 255, 255); stroke-linecap: round; stroke-linejoin: round; transform-origin: 183.92px 198.105px;" id="elhkczedmbih" class="animable"></path><path d="M123,457.13h54c.18-2.84,2.28-13.76,2.28-20.92,0-8.27,5.69-61.62,5.69-61.62l-70.23-.92,2.3,32.65Z" style="fill: rgb(38, 50, 56); stroke: rgb(38, 50, 56); stroke-linecap: round; stroke-linejoin: round; transform-origin: 149.855px 415.4px;" id="el0th6t6ji67" class="animable"></path><path d="M130,217.13s-12.31,15.79-15.78,24.64-6.16,10.39-5.39,21.55S115,319.13,115,319.13l-10.78,58.13a118.11,118.11,0,0,0,39.65,6.92c22.32,0,32-1.92,33.49-2.69s15-4.23,15-4.23,0-65.82-4.24-88.53-9.62-40-11.54-44.27-8.09-18.09-8.09-18.09Z" style="fill: rgb(38, 50, 56); stroke: rgb(38, 50, 56); stroke-linecap: round; stroke-linejoin: round; transform-origin: 148.29px 300.655px;" id="el8p58dxwql5g" class="animable"></path><path d="M176.61,244.46c-1.93-4.23-8.09-18.09-8.09-18.09L130,217.13s-2.6,3.34-5.75,7.81c8.39,4.87,29.16,16.91,30.39,17.21,1.54.39,9.24-.38,9.24-.38L160.44,246s9.24,7.32,12.32,10.39c1.62,1.62,6.32,5.9,10.42,9.6C180.39,254.93,177.81,247.12,176.61,244.46Z" style="fill: rgb(38, 50, 56); stroke: rgb(38, 50, 56); stroke-linecap: round; stroke-linejoin: round; transform-origin: 153.715px 241.56px;" id="el6cyhagombju" class="animable"></path><polygon points="158.9 234.84 171.99 245.23 182.76 264.48 175.84 236.38 161.6 228.3 158.9 234.84" style="fill: rgb(255, 255, 255); stroke: rgb(38, 50, 56); stroke-linecap: round; stroke-linejoin: round; transform-origin: 170.83px 246.39px;" id="elzudwkvwx9w" class="animable"></polygon><polygon points="132.73 209.82 173.03 227.98 173.03 242.22 126.95 218.67 132.73 209.82" style="fill: rgb(255, 255, 255); stroke: rgb(38, 50, 56); stroke-linecap: round; stroke-linejoin: round; transform-origin: 149.99px 226.02px;" id="elkxa8cosdrx" class="animable"></polygon><rect x="116.38" y="355.49" width="69.64" height="56.35" style="fill: rgb(44, 219, 19); stroke: rgb(38, 50, 56); stroke-miterlimit: 10; transform-origin: 151.2px 383.665px;" id="elw2cl21edgkf" class="animable"></rect><path d="M155.47,382.35s5.18,6.75,7.21,7.43a8,8,0,0,1,4,3.6c.9,1.35,2,11.48,2.7,12.16s.68,2.25-1.8,1.12-4-5-4-5l.9,9s2,.45.45,1.58-2.93,2.7-4.28,2a21.52,21.52,0,0,1-3.37-2.48,10.82,10.82,0,0,1-5,.45c-2.47-.45-2,.45-4.27-1.13s-2.26.23-3.38-2.7a138.46,138.46,0,0,1-4.28-16c-.45-2.93-.9-7-.9-7Z" style="fill: rgb(255, 255, 255); stroke: rgb(38, 50, 56); stroke-linecap: round; stroke-linejoin: round; transform-origin: 154.613px 398.382px;" id="el2i80cu7x7wc" class="animable"></path><polygon points="156.38 378.07 157.95 385.05 138.59 387.75 137.69 380.77 156.38 378.07" style="fill: rgb(255, 255, 255); stroke: rgb(38, 50, 56); stroke-linecap: round; stroke-linejoin: round; transform-origin: 147.82px 382.91px;" id="elnu5z2so3o5b" class="animable"></polygon><path d="M131.57,231s-13.47,4.23-13.85,10.39-4.85,80.87-2.92,85.87,20.86,55.67,20.86,55.67l21.94-2.69S146.36,321.48,146,320.32s7.54-66.62,7.54-66.62" style="fill: rgb(38, 50, 56); stroke: rgb(38, 50, 56); stroke-linecap: round; stroke-linejoin: round; transform-origin: 135.959px 306.965px;" id="elnnl3775hxo" class="animable"></path><polyline points="150.93 272.5 145.97 320.32 150.7 350.03" style="fill: none; stroke: rgb(135, 135, 135); stroke-linecap: round; stroke-linejoin: round; transform-origin: 148.45px 311.265px;" id="el9xhb71e0ilf" class="animable"></polyline><line x1="151.69" y1="265.18" x2="151.43" y2="267.72" style="fill: none; stroke: rgb(135, 135, 135); stroke-linecap: round; stroke-linejoin: round; transform-origin: 151.56px 266.45px;" id="ely2bkyz8vwmr" class="animable"></line><line x1="116.17" y1="257.78" x2="114.69" y2="302.68" style="fill: none; stroke: rgb(135, 135, 135); stroke-linecap: round; stroke-linejoin: round; transform-origin: 115.43px 280.23px;" id="eldxv1ydyfb2e" class="animable"></line><polyline points="166.49 342.19 181.29 341.65 182.62 346.98 158.1 348.55" style="fill: none; stroke: rgb(135, 135, 135); stroke-linecap: round; stroke-linejoin: round; transform-origin: 170.36px 345.1px;" id="elaf7jfbau7ep" class="animable"></polyline><line x1="154.16" y1="342.63" x2="162.04" y2="342.35" style="fill: none; stroke: rgb(135, 135, 135); stroke-linecap: round; stroke-linejoin: round; transform-origin: 158.1px 342.49px;" id="eltnblqcvofmc" class="animable"></line><polyline points="127.52 226.21 154.67 242.15 163.91 241.77 160.44 246 178.33 260.25" style="fill: none; stroke: rgb(135, 135, 135); stroke-linecap: round; stroke-linejoin: round; transform-origin: 152.925px 243.23px;" id="elplnpungoom" class="animable"></polyline></g><g id="freepik--Table--inject-26" class="animable" style="transform-origin: 239.725px 457.13px;"><line x1="11.48" y1="457.13" x2="467.97" y2="457.13" style="fill: none; stroke: rgb(38, 50, 56); stroke-miterlimit: 10; transform-origin: 239.725px 457.13px;" id="elzocivyeg5lk" class="animable"></line></g><g id="freepik--lines-1--inject-26" class="animable" style="transform-origin: 244.31px 78.815px;"><line x1="140.49" y1="45.02" x2="140.49" y2="112.61" style="fill: none; stroke: rgb(38, 50, 56); stroke-miterlimit: 10; transform-origin: 140.49px 78.815px;" id="elyxppkrtcucn" class="animable"></line><line x1="244.31" y1="45.02" x2="244.31" y2="112.61" style="fill: none; stroke: rgb(38, 50, 56); stroke-miterlimit: 10; transform-origin: 244.31px 78.815px;" id="el38mh35qbeiv" class="animable"></line><line x1="348.13" y1="45.02" x2="348.13" y2="112.61" style="fill: none; stroke: rgb(38, 50, 56); stroke-miterlimit: 10; transform-origin: 348.13px 78.815px;" id="elipj7ltweoun" class="animable"></line></g><defs>     <filter id="active" height="200%">         <feMorphology in="SourceAlpha" result="DILATED" operator="dilate" radius="2"></feMorphology>                <feFlood flood-color="#32DFEC" flood-opacity="1" result="PINK"></feFlood>        <feComposite in="PINK" in2="DILATED" operator="in" result="OUTLINE"></feComposite>        <feMerge>            <feMergeNode in="OUTLINE"></feMergeNode>            <feMergeNode in="SourceGraphic"></feMergeNode>        </feMerge>    </filter>    <filter id="hover" height="200%">        <feMorphology in="SourceAlpha" result="DILATED" operator="dilate" radius="2"></feMorphology>                <feFlood flood-color="#ff0000" flood-opacity="0.5" result="PINK"></feFlood>        <feComposite in="PINK" in2="DILATED" operator="in" result="OUTLINE"></feComposite>        <feMerge>            <feMergeNode in="OUTLINE"></feMergeNode>            <feMergeNode in="SourceGraphic"></feMergeNode>        </feMerge>            <feColorMatrix type="matrix" values="0   0   0   0   0                0   1   0   0   0                0   0   0   0   0                0   0   0   1   0 "></feColorMatrix>    </filter></defs></svg>